<svg width="500" height="500" viewBox="0 0 500 500" fill="none" xmlns="http://www.w3.org/2000/svg">
<path fill-rule="evenodd" clip-rule="evenodd" d="M0 2.18557e-05L2.18556e-05 500L500 500L500 0L0 2.18557e-05ZM250 138.889C311.365 138.889 361.111 188.635 361.111 250C361.111 311.365 311.365 361.111 250 361.111C188.635 361.111 138.889 311.365 138.889 250C138.889 188.635 188.635 138.889 250 138.889ZM250 64.8148C352.275 64.8148 435.185 147.725 435.185 250C435.185 352.275 352.275 435.185 250 435.185C147.725 435.185 64.8148 352.275 64.8148 250C64.8148 147.725 147.725 64.8148 250 64.8148Z" fill="white"/>
</svg>
