<svg width="611" height="578" viewBox="0 0 611 578" fill="none" xmlns="http://www.w3.org/2000/svg">
<path d="M564.668 1.7333C560.268 3.3333 35.6014 278 19.3348 287.333C-7.99858 303.067 -5.73191 342.4 23.2014 353.2C30.9348 356 213.468 418.667 214.135 418.667C214.268 418.667 214.668 448.267 214.935 484.267C215.335 547.867 215.468 550.133 218.135 556.133C224.801 570.533 236.135 578 251.335 578C258.401 578 262.135 577.2 266.668 575.067C270.001 573.333 294.001 553.067 320.001 529.867C346.001 506.667 370.401 485.067 374.135 481.867L380.935 476L439.468 496.267C494.268 515.2 498.668 516.533 508.001 516.533C515.735 516.533 519.201 516 523.468 513.733C529.868 510.267 538.135 501.467 540.801 495.2C542.935 490 610.668 45.0666 610.668 35.8666C610.668 28 607.601 19.0666 602.801 13.2C594.401 3.06664 576.801 -2.2667 564.668 1.7333ZM510.535 79.6C508.801 81.6 445.335 148 369.468 227.2C293.601 306.533 230.268 372.8 228.668 374.533L225.601 377.6L192.535 366.267C174.268 360 138.001 347.6 112.001 338.667C54.1348 318.933 52.9348 318.533 54.2681 317.333C54.8014 316.8 70.4014 308.533 88.6681 298.933C107.068 289.333 209.868 235.2 317.335 178.8C424.801 122.4 512.935 76.1333 513.201 76.1333C513.601 76 512.401 77.6 510.535 79.6ZM531.201 281.467C515.468 385.867 502.268 471.467 502.001 471.733C501.601 472.267 272.001 393.733 270.935 392.8C270.668 392.4 335.468 324.4 414.801 241.467C494.268 158.667 559.468 91.0666 559.601 91.2C559.868 91.4666 547.068 177.067 531.201 281.467ZM295.868 446.8C315.335 453.467 331.868 459.333 332.401 459.867C333.335 460.8 261.735 525.467 258.668 526.4C257.735 526.8 257.335 511.2 257.335 480.8C257.335 446.4 257.735 434.667 258.935 434.667C259.735 434.667 276.401 440.133 295.868 446.8Z" fill="white"/>
</svg>
