<svg width="708" height="409" viewBox="0 0 708 409" fill="none" xmlns="http://www.w3.org/2000/svg">
<path d="M690 80C699.941 80 708 71.9411 708 62L708 18C708 8.0589 699.941 3.01653e-05 690 2.97308e-05L18 3.5672e-07C8.05888 -7.78202e-08 3.14465e-06 8.05887 2.7101e-06 18L7.86805e-07 62C3.52264e-07 71.9411 8.05888 80 18 80L690 80Z" fill="#2F74FC"/>
<path d="M484.856 49.9995C483.972 50.1729 483.105 50.2465 482.256 50.2205C481.406 50.1945 480.648 50.0299 479.981 49.7265C479.313 49.4232 478.811 48.9465 478.473 48.2965C478.169 47.7159 478.005 47.1265 477.979 46.5285C477.961 45.9219 477.953 45.2372 477.953 44.4745V32.0595H480.683V44.3445C480.683 44.9079 480.687 45.3975 480.696 45.8135C480.713 46.2295 480.804 46.5805 480.969 46.8665C481.281 47.4039 481.775 47.7115 482.451 47.7895C483.135 47.8589 483.937 47.8285 484.856 47.6985V49.9995ZM475.262 38.1435V35.9595H484.856V38.1435H475.262Z" fill="white"/>
<path d="M488.076 33.6585V31.0195H490.793V33.6585H488.076ZM488.076 49.9995V35.9595H490.793V49.9995H488.076Z" fill="white"/>
<path d="M500.703 50.3895C499.264 50.3895 498.042 50.0689 497.037 49.4275C496.031 48.7862 495.26 47.9065 494.723 46.7885C494.194 45.6705 493.925 44.4009 493.917 42.9795C493.925 41.5322 494.203 40.2539 494.749 39.1445C495.295 38.0265 496.075 37.1512 497.089 36.5185C498.103 35.8859 499.32 35.5695 500.742 35.5695C502.276 35.5695 503.584 35.9509 504.668 36.7135C505.76 37.4762 506.479 38.5205 506.826 39.8465L504.122 40.6265C503.853 39.8379 503.411 39.2269 502.796 38.7935C502.189 38.3515 501.491 38.1305 500.703 38.1305C499.81 38.1305 499.078 38.3429 498.506 38.7675C497.934 39.1835 497.509 39.7555 497.232 40.4835C496.954 41.2115 496.811 42.0435 496.803 42.9795C496.811 44.4269 497.141 45.5969 497.791 46.4895C498.449 47.3822 499.42 47.8285 500.703 47.8285C501.578 47.8285 502.284 47.6292 502.822 47.2305C503.368 46.8232 503.784 46.2425 504.07 45.4885L506.826 46.1385C506.366 47.5079 505.608 48.5609 504.551 49.2975C503.493 50.0255 502.211 50.3895 500.703 50.3895Z" fill="white"/>
<path d="M517.508 49.9995C516.624 50.1729 515.757 50.2465 514.908 50.2205C514.059 50.1945 513.3 50.0299 512.633 49.7265C511.966 49.4232 511.463 48.9465 511.125 48.2965C510.822 47.7159 510.657 47.1265 510.631 46.5285C510.614 45.9219 510.605 45.2372 510.605 44.4745V32.0595H513.335V44.3445C513.335 44.9079 513.339 45.3975 513.348 45.8135C513.365 46.2295 513.456 46.5805 513.621 46.8665C513.933 47.4039 514.427 47.7115 515.103 47.7895C515.788 47.8589 516.589 47.8285 517.508 47.6985V49.9995ZM507.914 38.1435V35.9595H517.508V38.1435H507.914Z" fill="white"/>
<path d="M524.433 50.3895C523.393 50.3895 522.522 50.1989 521.82 49.8175C521.118 49.4275 520.585 48.9162 520.221 48.2835C519.866 47.6422 519.688 46.9402 519.688 46.1775C519.688 45.4669 519.814 44.8429 520.065 44.3055C520.317 43.7682 520.689 43.3132 521.183 42.9405C521.677 42.5592 522.284 42.2515 523.003 42.0175C523.627 41.8355 524.334 41.6752 525.122 41.5365C525.911 41.3979 526.739 41.2679 527.605 41.1465C528.481 41.0252 529.347 40.9039 530.205 40.7825L529.217 41.3285C529.235 40.2279 529.001 39.4132 528.515 38.8845C528.039 38.3472 527.215 38.0785 526.045 38.0785C525.309 38.0785 524.633 38.2519 524.017 38.5985C523.402 38.9365 522.973 39.4999 522.73 40.2885L520.195 39.5085C520.542 38.3039 521.201 37.3462 522.171 36.6355C523.151 35.9249 524.451 35.5695 526.071 35.5695C527.328 35.5695 528.42 35.7862 529.347 36.2195C530.283 36.6442 530.968 37.3202 531.401 38.2475C531.627 38.7069 531.765 39.1922 531.817 39.7035C531.869 40.2149 531.895 40.7652 531.895 41.3545V49.9995H529.49V46.7885L529.958 47.2045C529.378 48.2792 528.637 49.0809 527.735 49.6095C526.843 50.1295 525.742 50.3895 524.433 50.3895ZM524.914 48.1665C525.686 48.1665 526.349 48.0322 526.903 47.7635C527.458 47.4862 527.904 47.1352 528.242 46.7105C528.58 46.2859 528.801 45.8439 528.905 45.3845C529.053 44.9685 529.135 44.5005 529.152 43.9805C529.178 43.4605 529.191 43.0445 529.191 42.7325L530.075 43.0575C529.217 43.1875 528.437 43.3045 527.735 43.4085C527.033 43.5125 526.396 43.6165 525.824 43.7205C525.261 43.8159 524.758 43.9329 524.316 44.0715C523.944 44.2015 523.61 44.3575 523.315 44.5395C523.029 44.7215 522.8 44.9425 522.626 45.2025C522.462 45.4625 522.379 45.7789 522.379 46.1515C522.379 46.5155 522.47 46.8535 522.652 47.1655C522.834 47.4689 523.112 47.7115 523.484 47.8935C523.857 48.0755 524.334 48.1665 524.914 48.1665Z" fill="white"/>
<path d="M541.277 50.3895C539.838 50.3895 538.616 50.0689 537.611 49.4275C536.606 48.7862 535.834 47.9065 535.297 46.7885C534.768 45.6705 534.5 44.4009 534.491 42.9795C534.5 41.5322 534.777 40.2539 535.323 39.1445C535.869 38.0265 536.649 37.1512 537.663 36.5185C538.677 35.8859 539.895 35.5695 541.316 35.5695C542.85 35.5695 544.159 35.9509 545.242 36.7135C546.334 37.4762 547.053 38.5205 547.4 39.8465L544.696 40.6265C544.427 39.8379 543.985 39.2269 543.37 38.7935C542.763 38.3515 542.066 38.1305 541.277 38.1305C540.384 38.1305 539.652 38.3429 539.08 38.7675C538.508 39.1835 538.083 39.7555 537.806 40.4835C537.529 41.2115 537.386 42.0435 537.377 42.9795C537.386 44.4269 537.715 45.5969 538.365 46.4895C539.024 47.3822 539.994 47.8285 541.277 47.8285C542.152 47.8285 542.859 47.6292 543.396 47.2305C543.942 46.8232 544.358 46.2425 544.644 45.4885L547.4 46.1385C546.941 47.5079 546.182 48.5609 545.125 49.2975C544.068 50.0255 542.785 50.3895 541.277 50.3895Z" fill="white"/>
<path d="M558.082 49.9995C557.198 50.1729 556.332 50.2465 555.482 50.2205C554.633 50.1945 553.875 50.0299 553.207 49.7265C552.54 49.4232 552.037 48.9465 551.699 48.2965C551.396 47.7159 551.231 47.1265 551.205 46.5285C551.188 45.9219 551.179 45.2372 551.179 44.4745V32.0595H553.909V44.3445C553.909 44.9079 553.914 45.3975 553.922 45.8135C553.94 46.2295 554.031 46.5805 554.195 46.8665C554.507 47.4039 555.001 47.7115 555.677 47.7895C556.362 47.8589 557.164 47.8285 558.082 47.6985V49.9995ZM548.488 38.1435V35.9595H558.082V38.1435H548.488Z" fill="white"/>
<path d="M566.505 50.3895C565.101 50.3895 563.883 50.0732 562.852 49.4405C561.82 48.8079 561.023 47.9369 560.46 46.8275C559.905 45.7095 559.628 44.4225 559.628 42.9665C559.628 41.5019 559.914 40.2149 560.486 39.1055C561.058 37.9875 561.859 37.1209 562.891 36.5055C563.922 35.8815 565.127 35.5695 566.505 35.5695C567.909 35.5695 569.126 35.8859 570.158 36.5185C571.189 37.1512 571.986 38.0222 572.55 39.1315C573.113 40.2409 573.395 41.5192 573.395 42.9665C573.395 44.4312 573.109 45.7225 572.537 46.8405C571.973 47.9499 571.176 48.8209 570.145 49.4535C569.113 50.0775 567.9 50.3895 566.505 50.3895ZM566.505 47.8285C567.848 47.8285 568.849 47.3779 569.508 46.4765C570.175 45.5665 570.509 44.3965 570.509 42.9665C570.509 41.5019 570.171 40.3319 569.495 39.4565C568.827 38.5725 567.831 38.1305 566.505 38.1305C565.595 38.1305 564.845 38.3385 564.256 38.7545C563.666 39.1619 563.229 39.7295 562.943 40.4575C562.657 41.1769 562.514 42.0132 562.514 42.9665C562.514 44.4399 562.852 45.6185 563.528 46.5025C564.204 47.3865 565.196 47.8285 566.505 47.8285Z" fill="white"/>
<path d="M582.478 50.3895C581.083 50.3895 579.857 50.0862 578.799 49.4795C577.751 48.8642 576.932 48.0105 576.342 46.9185C575.762 45.8179 575.471 44.5439 575.471 43.0965C575.471 41.5625 575.757 40.2322 576.329 39.1055C576.91 37.9789 577.716 37.1079 578.747 36.4925C579.779 35.8772 580.979 35.5695 582.348 35.5695C583.778 35.5695 584.996 35.9032 586.001 36.5705C587.007 37.2292 587.756 38.1695 588.25 39.3915C588.753 40.6135 588.952 42.0652 588.848 43.7465H586.131V42.7585C586.114 41.1292 585.802 39.9245 585.195 39.1445C584.597 38.3645 583.683 37.9745 582.452 37.9745C581.092 37.9745 580.069 38.4035 579.384 39.2615C578.7 40.1195 578.357 41.3589 578.357 42.9795C578.357 44.5222 578.7 45.7182 579.384 46.5675C580.069 47.4082 581.057 47.8285 582.348 47.8285C583.198 47.8285 583.93 47.6379 584.545 47.2565C585.169 46.8665 585.655 46.3119 586.001 45.5925L588.666 46.4375C588.12 47.6942 587.293 48.6692 586.183 49.3625C585.074 50.0472 583.839 50.3895 582.478 50.3895ZM577.473 43.7465V41.6275H587.496V43.7465H577.473Z" fill="white"/>
<path d="M601.238 49.9995V43.0965C601.238 42.5505 601.191 41.9915 601.095 41.4195C601.009 40.8389 600.835 40.3015 600.575 39.8075C600.324 39.3135 599.964 38.9149 599.496 38.6115C599.037 38.3082 598.435 38.1565 597.689 38.1565C597.204 38.1565 596.745 38.2389 596.311 38.4035C595.878 38.5595 595.497 38.8152 595.167 39.1705C594.847 39.5259 594.591 39.9939 594.4 40.5745C594.218 41.1552 594.127 41.8615 594.127 42.6935L592.437 42.0565C592.437 40.7825 592.676 39.6602 593.152 38.6895C593.629 37.7102 594.314 36.9475 595.206 36.4015C596.099 35.8555 597.178 35.5825 598.443 35.5825C599.414 35.5825 600.229 35.7385 600.887 36.0505C601.546 36.3625 602.079 36.7742 602.486 37.2855C602.902 37.7882 603.219 38.3385 603.435 38.9365C603.652 39.5345 603.799 40.1195 603.877 40.6915C603.955 41.2635 603.994 41.7662 603.994 42.1995V49.9995H601.238ZM591.371 49.9995V35.9595H593.802V40.0155H594.127V49.9995H591.371Z" fill="white"/>
<path d="M613.43 50.3895C612.034 50.3895 610.808 50.0862 609.751 49.4795C608.702 48.8642 607.883 48.0105 607.294 46.9185C606.713 45.8179 606.423 44.5439 606.423 43.0965C606.423 41.5625 606.709 40.2322 607.281 39.1055C607.861 37.9789 608.667 37.1079 609.699 36.4925C610.73 35.8772 611.93 35.5695 613.3 35.5695C614.73 35.5695 615.947 35.9032 616.953 36.5705C617.958 37.2292 618.708 38.1695 619.202 39.3915C619.704 40.6135 619.904 42.0652 619.8 43.7465H617.083V42.7585C617.065 41.1292 616.753 39.9245 616.147 39.1445C615.549 38.3645 614.634 37.9745 613.404 37.9745C612.043 37.9745 611.02 38.4035 610.336 39.2615C609.651 40.1195 609.309 41.3589 609.309 42.9795C609.309 44.5222 609.651 45.7182 610.336 46.5675C611.02 47.4082 612.008 47.8285 613.3 47.8285C614.149 47.8285 614.881 47.6379 615.497 47.2565C616.121 46.8665 616.606 46.3119 616.953 45.5925L619.618 46.4375C619.072 47.6942 618.244 48.6692 617.135 49.3625C616.025 50.0472 614.79 50.3895 613.43 50.3895ZM608.425 43.7465V41.6275H618.448V43.7465H608.425Z" fill="white"/>
<path d="M622.716 49.9995V35.9595H625.134V39.3655L624.796 38.9235C624.97 38.4729 625.195 38.0612 625.472 37.6885C625.75 37.3072 626.07 36.9952 626.434 36.7525C626.79 36.4925 627.184 36.2932 627.617 36.1545C628.059 36.0072 628.51 35.9205 628.969 35.8945C629.429 35.8599 629.871 35.8815 630.295 35.9595V38.5075C629.836 38.3862 629.325 38.3515 628.761 38.4035C628.207 38.4555 627.695 38.6332 627.227 38.9365C626.785 39.2225 626.434 39.5692 626.174 39.9765C625.923 40.3839 625.741 40.8389 625.628 41.3415C625.516 41.8355 625.459 42.3599 625.459 42.9145V49.9995H622.716Z" fill="white"/>
<path d="M638.094 50.3895C636.785 50.3895 635.654 50.0645 634.701 49.4145C633.756 48.7645 633.024 47.8805 632.504 46.7625C631.993 45.6359 631.737 44.3705 631.737 42.9665C631.737 41.5539 631.997 40.2929 632.517 39.1835C633.037 38.0655 633.774 37.1859 634.727 36.5445C635.689 35.8945 636.829 35.5695 638.146 35.5695C639.472 35.5695 640.586 35.8945 641.487 36.5445C642.397 37.1859 643.082 38.0655 643.541 39.1835C644.009 40.3015 644.243 41.5625 644.243 42.9665C644.243 44.3705 644.009 45.6315 643.541 46.7495C643.073 47.8675 642.384 48.7559 641.474 49.4145C640.564 50.0645 639.437 50.3895 638.094 50.3895ZM638.471 47.9325C639.364 47.9325 640.092 47.7202 640.655 47.2955C641.218 46.8709 641.63 46.2859 641.89 45.5405C642.15 44.7952 642.28 43.9372 642.28 42.9665C642.28 41.9959 642.146 41.1379 641.877 40.3925C641.617 39.6472 641.21 39.0665 640.655 38.6505C640.109 38.2345 639.411 38.0265 638.562 38.0265C637.661 38.0265 636.92 38.2475 636.339 38.6895C635.758 39.1315 635.325 39.7252 635.039 40.4705C634.762 41.2159 634.623 42.0479 634.623 42.9665C634.623 43.8939 634.762 44.7345 635.039 45.4885C635.325 46.2339 635.75 46.8275 636.313 47.2695C636.885 47.7115 637.604 47.9325 638.471 47.9325ZM642.28 49.9995V39.8985H641.968V31.2795H644.698V49.9995H642.28Z" fill="white"/>
<path d="M646.255 56.2395V53.6655H646.97C647.69 53.6655 648.214 53.4922 648.543 53.1455C648.881 52.7989 649.05 52.2659 649.05 51.5465V35.9595H651.78V52.6515C651.78 53.7955 651.464 54.6795 650.831 55.3035C650.207 55.9275 649.31 56.2395 648.14 56.2395H646.255ZM649.05 33.6585V31.0195H651.78V33.6585H649.05Z" fill="white"/>
<path d="M661.723 50.3895C660.327 50.3895 659.101 50.0862 658.044 49.4795C656.995 48.8642 656.176 48.0105 655.587 46.9185C655.006 45.8179 654.716 44.5439 654.716 43.0965C654.716 41.5625 655.002 40.2322 655.574 39.1055C656.154 37.9789 656.96 37.1079 657.992 36.4925C659.023 35.8772 660.223 35.5695 661.593 35.5695C663.023 35.5695 664.24 35.9032 665.246 36.5705C666.251 37.2292 667.001 38.1695 667.495 39.3915C667.997 40.6135 668.197 42.0652 668.093 43.7465H665.376V42.7585C665.358 41.1292 665.046 39.9245 664.44 39.1445C663.842 38.3645 662.927 37.9745 661.697 37.9745C660.336 37.9745 659.313 38.4035 658.629 39.2615C657.944 40.1195 657.602 41.3589 657.602 42.9795C657.602 44.5222 657.944 45.7182 658.629 46.5675C659.313 47.4082 660.301 47.8285 661.593 47.8285C662.442 47.8285 663.174 47.6379 663.79 47.2565C664.414 46.8665 664.899 46.3119 665.246 45.5925L667.911 46.4375C667.365 47.6942 666.537 48.6692 665.428 49.3625C664.318 50.0472 663.083 50.3895 661.723 50.3895ZM656.718 43.7465V41.6275H666.741V43.7465H656.718Z" fill="white"/>
<path d="M59.9453 49.9996L66.3283 40.5226L60.1143 31.2796H63.4423L68.0053 38.2216L72.5423 31.2796H75.8833L69.6693 40.5226L76.0393 49.9996H72.7113L68.0053 42.8366L63.2863 49.9996H59.9453Z" fill="white"/>
<path d="M83.4798 50.3766C81.7724 50.3766 80.3814 49.9996 79.3068 49.2456C78.2321 48.4916 77.5734 47.43 77.3308 46.0606L80.1128 45.6316C80.2861 46.3596 80.6848 46.936 81.3088 47.3606C81.9414 47.7766 82.7258 47.9846 83.6618 47.9846C84.5111 47.9846 85.1741 47.8113 85.6508 47.4646C86.1361 47.118 86.3788 46.6413 86.3788 46.0346C86.3788 45.6793 86.2921 45.3933 86.1188 45.1766C85.9541 44.9513 85.6031 44.739 85.0658 44.5396C84.5284 44.3403 83.7094 44.0933 82.6088 43.7986C81.4041 43.4866 80.4464 43.153 79.7358 42.7976C79.0338 42.4336 78.5311 42.0133 78.2278 41.5366C77.9331 41.0513 77.7858 40.4663 77.7858 39.7816C77.7858 38.9323 78.0111 38.1913 78.4618 37.5586C78.9124 36.926 79.5451 36.4363 80.3598 36.0896C81.1831 35.743 82.1451 35.5696 83.2458 35.5696C84.3204 35.5696 85.2781 35.7386 86.1188 36.0766C86.9594 36.4146 87.6398 36.8956 88.1598 37.5196C88.6798 38.135 88.9918 38.8586 89.0958 39.6906L86.3138 40.1976C86.2184 39.5216 85.9021 38.9886 85.3648 38.5986C84.8274 38.2086 84.1298 37.9963 83.2718 37.9616C82.4484 37.927 81.7811 38.0656 81.2698 38.3776C80.7584 38.681 80.5028 39.1013 80.5028 39.6386C80.5028 39.9506 80.5981 40.215 80.7888 40.4316C80.9881 40.6483 81.3694 40.8563 81.9328 41.0556C82.4961 41.255 83.3281 41.4933 84.4288 41.7706C85.6074 42.074 86.5434 42.412 87.2368 42.7846C87.9301 43.1486 88.4241 43.5863 88.7188 44.0976C89.0221 44.6003 89.1738 45.2113 89.1738 45.9306C89.1738 47.3173 88.6668 48.405 87.6528 49.1936C86.6474 49.9823 85.2564 50.3766 83.4798 50.3766Z" fill="white"/>
<path d="M90.7502 49.9996L96.8342 31.2796H100.747L106.831 49.9996H104.01L98.4072 32.9176H99.1092L93.5712 49.9996H90.7502ZM93.9092 45.7746V43.2266H103.685V45.7746H93.9092Z" fill="white"/>
<path d="M119.018 49.9996V43.0966C119.018 42.5506 118.97 41.9916 118.875 41.4196C118.788 40.839 118.615 40.3016 118.355 39.8076C118.103 39.3136 117.744 38.915 117.276 38.6116C116.816 38.3083 116.214 38.1566 115.469 38.1566C114.983 38.1566 114.524 38.239 114.091 38.4036C113.657 38.5596 113.276 38.8153 112.947 39.1706C112.626 39.526 112.37 39.994 112.18 40.5746C111.998 41.1553 111.907 41.8616 111.907 42.6936L110.217 42.0566C110.217 40.7826 110.455 39.6603 110.932 38.6896C111.408 37.7103 112.093 36.9476 112.986 36.4016C113.878 35.8556 114.957 35.5826 116.223 35.5826C117.193 35.5826 118.008 35.7386 118.667 36.0506C119.325 36.3626 119.858 36.7743 120.266 37.2856C120.682 37.7883 120.998 38.3386 121.215 38.9366C121.431 39.5346 121.579 40.1196 121.657 40.6916C121.735 41.2636 121.774 41.7663 121.774 42.1996V49.9996H119.018ZM109.151 49.9996V35.9596H111.582V40.0156H111.907V49.9996H109.151Z" fill="white"/>
<path d="M130.559 50.3896C129.25 50.3896 128.119 50.0646 127.166 49.4146C126.221 48.7646 125.489 47.8806 124.969 46.7626C124.458 45.636 124.202 44.3706 124.202 42.9666C124.202 41.554 124.462 40.293 124.982 39.1836C125.502 38.0656 126.239 37.186 127.192 36.5446C128.154 35.8946 129.294 35.5696 130.611 35.5696C131.937 35.5696 133.051 35.8946 133.952 36.5446C134.862 37.186 135.547 38.0656 136.006 39.1836C136.474 40.3016 136.708 41.5626 136.708 42.9666C136.708 44.3706 136.474 45.6316 136.006 46.7496C135.538 47.8676 134.849 48.756 133.939 49.4146C133.029 50.0646 131.902 50.3896 130.559 50.3896ZM130.936 47.9326C131.829 47.9326 132.557 47.7203 133.12 47.2956C133.683 46.871 134.095 46.286 134.355 45.5406C134.615 44.7953 134.745 43.9373 134.745 42.9666C134.745 41.996 134.611 41.138 134.342 40.3926C134.082 39.6473 133.675 39.0666 133.12 38.6506C132.574 38.2346 131.876 38.0266 131.027 38.0266C130.126 38.0266 129.385 38.2476 128.804 38.6896C128.223 39.1316 127.79 39.7253 127.504 40.4706C127.227 41.216 127.088 42.048 127.088 42.9666C127.088 43.894 127.227 44.7346 127.504 45.4886C127.79 46.234 128.215 46.8276 128.778 47.2696C129.35 47.7116 130.069 47.9326 130.936 47.9326ZM134.745 49.9996V39.8986H134.433V31.2796H137.163V49.9996H134.745Z" fill="white"/>
<path d="M148.613 50.3896C146.741 50.3896 145.147 49.9823 143.829 49.1676C142.512 48.3443 141.502 47.2003 140.8 45.7356C140.107 44.271 139.76 42.5723 139.76 40.6396C139.76 38.707 140.107 37.0083 140.8 35.5436C141.502 34.079 142.512 32.9393 143.829 32.1246C145.147 31.3013 146.741 30.8896 148.613 30.8896C150.477 30.8896 152.067 31.3013 153.384 32.1246C154.71 32.9393 155.72 34.079 156.413 35.5436C157.107 37.0083 157.453 38.707 157.453 40.6396C157.453 42.5723 157.107 44.271 156.413 45.7356C155.72 47.2003 154.71 48.3443 153.384 49.1676C152.067 49.9823 150.477 50.3896 148.613 50.3896ZM148.613 47.8026C149.939 47.82 151.04 47.5296 151.915 46.9316C152.799 46.325 153.462 45.4843 153.904 44.4096C154.346 43.3263 154.567 42.0696 154.567 40.6396C154.567 39.2096 154.346 37.9616 153.904 36.8956C153.462 35.821 152.799 34.9846 151.915 34.3866C151.04 33.7886 149.939 33.4853 148.613 33.4766C147.287 33.4593 146.182 33.7496 145.298 34.3476C144.423 34.9456 143.764 35.7863 143.322 36.8696C142.88 37.953 142.655 39.2096 142.646 40.6396C142.638 42.0696 142.854 43.322 143.296 44.3966C143.738 45.4626 144.401 46.2946 145.285 46.8926C146.178 47.4906 147.287 47.794 148.613 47.8026Z" fill="white"/>
<path d="M165.415 50.3766C163.708 50.3766 162.317 49.9996 161.242 49.2456C160.168 48.4916 159.509 47.43 159.266 46.0606L162.048 45.6316C162.222 46.3596 162.62 46.936 163.244 47.3606C163.877 47.7766 164.661 47.9846 165.597 47.9846C166.447 47.9846 167.11 47.8113 167.586 47.4646C168.072 47.118 168.314 46.6413 168.314 46.0346C168.314 45.6793 168.228 45.3933 168.054 45.1766C167.89 44.9513 167.539 44.739 167.001 44.5396C166.464 44.3403 165.645 44.0933 164.544 43.7986C163.34 43.4866 162.382 43.153 161.671 42.7976C160.969 42.4336 160.467 42.0133 160.163 41.5366C159.869 41.0513 159.721 40.4663 159.721 39.7816C159.721 38.9323 159.947 38.1913 160.397 37.5586C160.848 36.926 161.481 36.4363 162.295 36.0896C163.119 35.743 164.081 35.5696 165.181 35.5696C166.256 35.5696 167.214 35.7386 168.054 36.0766C168.895 36.4146 169.575 36.8956 170.095 37.5196C170.615 38.135 170.927 38.8586 171.031 39.6906L168.249 40.1976C168.154 39.5216 167.838 38.9886 167.3 38.5986C166.763 38.2086 166.065 37.9963 165.207 37.9616C164.384 37.927 163.717 38.0656 163.205 38.3776C162.694 38.681 162.438 39.1013 162.438 39.6386C162.438 39.9506 162.534 40.215 162.724 40.4316C162.924 40.6483 163.305 40.8563 163.868 41.0556C164.432 41.255 165.264 41.4933 166.364 41.7706C167.543 42.074 168.479 42.412 169.172 42.7846C169.866 43.1486 170.36 43.5863 170.654 44.0976C170.958 44.6003 171.109 45.2113 171.109 45.9306C171.109 47.3173 170.602 48.405 169.588 49.1936C168.583 49.9823 167.192 50.3766 165.415 50.3766Z" fill="white"/>
<path d="M181.643 50.3896C180.386 50.3896 179.229 50.173 178.172 49.7396C177.114 49.2976 176.196 48.6563 175.416 47.8156C174.636 46.975 174.029 45.9523 173.596 44.7476C173.162 43.543 172.946 42.1736 172.946 40.6396C172.946 38.6203 173.314 36.887 174.051 35.4396C174.787 33.9836 175.81 32.8656 177.119 32.0856C178.427 31.297 179.935 30.9026 181.643 30.9026C183.844 30.9026 185.599 31.414 186.908 32.4366C188.225 33.4593 189.122 34.872 189.599 36.6746L186.843 37.1686C186.461 36.0506 185.846 35.158 184.997 34.4906C184.147 33.8233 183.081 33.4853 181.799 33.4766C180.473 33.468 179.368 33.7626 178.484 34.3606C177.608 34.9586 176.95 35.7993 176.508 36.8826C176.066 37.9573 175.84 39.2096 175.832 40.6396C175.823 42.0696 176.04 43.322 176.482 44.3966C176.924 45.4626 177.587 46.2946 178.471 46.8926C179.363 47.4906 180.473 47.794 181.799 47.8026C182.865 47.82 183.779 47.625 184.542 47.2176C185.313 46.8016 185.924 46.195 186.375 45.3976C186.825 44.6003 187.116 43.621 187.246 42.4596H183.606V40.2756H190.132C190.149 40.4316 190.162 40.6396 190.171 40.8996C190.179 41.151 190.184 41.3113 190.184 41.3806C190.184 43.114 189.85 44.661 189.183 46.0216C188.515 47.3823 187.545 48.4526 186.271 49.2326C184.997 50.004 183.454 50.3896 181.643 50.3896Z" fill="white"/>
<path d="M198.066 50.3766C197.095 50.3766 196.281 50.2206 195.622 49.9086C194.963 49.5966 194.426 49.1893 194.01 48.6866C193.603 48.1753 193.291 47.6206 193.074 47.0226C192.857 46.4246 192.71 45.8396 192.632 45.2676C192.554 44.6956 192.515 44.193 192.515 43.7596V35.9596H195.271V42.8626C195.271 43.4086 195.314 43.972 195.401 44.5526C195.496 45.1246 195.67 45.6576 195.921 46.1516C196.181 46.6456 196.541 47.0443 197 47.3476C197.468 47.651 198.075 47.8026 198.82 47.8026C199.305 47.8026 199.765 47.7246 200.198 47.5686C200.631 47.404 201.008 47.144 201.329 46.7886C201.658 46.4333 201.914 45.9653 202.096 45.3846C202.287 44.804 202.382 44.0976 202.382 43.2656L204.072 43.9026C204.072 45.1766 203.834 46.3033 203.357 47.2826C202.88 48.2533 202.196 49.0116 201.303 49.5576C200.41 50.1036 199.331 50.3766 198.066 50.3766ZM202.707 49.9996V45.9436H202.382V35.9596H205.125V49.9996H202.707Z" fill="white"/>
<path d="M208.771 49.9996V35.9596H211.189V39.3656L210.851 38.9236C211.024 38.473 211.25 38.0613 211.527 37.6886C211.804 37.3073 212.125 36.9953 212.489 36.7526C212.844 36.4926 213.239 36.2933 213.672 36.1546C214.114 36.0073 214.565 35.9206 215.024 35.8946C215.483 35.86 215.925 35.8816 216.35 35.9596V38.5076C215.891 38.3863 215.379 38.3516 214.816 38.4036C214.261 38.4556 213.75 38.6333 213.282 38.9366C212.84 39.2226 212.489 39.5693 212.229 39.9766C211.978 40.384 211.796 40.839 211.683 41.3416C211.57 41.8356 211.514 42.36 211.514 42.9146V49.9996H208.771Z" fill="white"/>
<path d="M224.117 50.3766C223.146 50.3766 222.331 50.2206 221.673 49.9086C221.014 49.5966 220.477 49.1893 220.061 48.6866C219.653 48.1753 219.341 47.6206 219.125 47.0226C218.908 46.4246 218.761 45.8396 218.683 45.2676C218.605 44.6956 218.566 44.193 218.566 43.7596V35.9596H221.322V42.8626C221.322 43.4086 221.365 43.972 221.452 44.5526C221.547 45.1246 221.72 45.6576 221.972 46.1516C222.232 46.6456 222.591 47.0443 223.051 47.3476C223.519 47.651 224.125 47.8026 224.871 47.8026C225.356 47.8026 225.815 47.7246 226.249 47.5686C226.682 47.404 227.059 47.144 227.38 46.7886C227.709 46.4333 227.965 45.9653 228.147 45.3846C228.337 44.804 228.433 44.0976 228.433 43.2656L230.123 43.9026C230.123 45.1766 229.884 46.3033 229.408 47.2826C228.931 48.2533 228.246 49.0116 227.354 49.5576C226.461 50.1036 225.382 50.3766 224.117 50.3766ZM228.758 49.9996V45.9436H228.433V35.9596H231.176V49.9996H228.758Z" fill="white"/>
<path d="M358.311 28.5114H350.611L341.677 49.2216L332.7 28.5114H325L337.805 57.4886H345.463L358.311 28.5114Z" fill="white"/>
<path d="M370.748 28C364.154 28 358.964 31.9205 358.964 37.2045C358.964 43.6392 366.579 45.2585 370.918 46.2812C373.598 46.9205 376.023 47.5597 376.023 49.392C376.023 50.6278 374.874 51.9489 371.769 51.9489C366.026 51.9489 365.473 47.3466 365.473 47.3466H358.538C358.538 51.8636 362.324 58 371.386 58C378.15 58 383 54.5483 383 49.0085C383 42.6165 376.576 41.0824 372.024 39.8892C367.94 38.8239 366.026 38.2699 366.026 36.8636C366.026 35.2017 368.578 34.2642 370.663 34.2642C373.641 34.2642 375.342 36.2244 375.342 37.6733H382.277C382.277 33.1562 378.278 28 370.748 28Z" fill="white"/>
<path d="M551 106L551 80L565 80L565 106L551 106Z" fill="#2F74FC"/>
<path d="M156 106L156 80L142 80L142 106L156 106Z" fill="#2F74FC"/>
<path d="M590 106L590 80L604 80L604 106L590 106Z" fill="#2F74FC"/>
<path d="M117 106L117 80L103 80L103 106L117 106Z" fill="#2F74FC"/>
<path d="M402 67L402 13L456 13L456 67L402 67Z" fill="white"/>
<path opacity="0.2" d="M429 20C440.046 20 449 28.9543 449 40C449 51.0457 440.046 60 429 60C417.954 60 409 51.0457 409 40C409 28.9543 417.954 20 429 20Z" fill="white"/>
<path fill-rule="evenodd" clip-rule="evenodd" d="M441 40C441 33.3726 435.627 28 429 28C422.373 28 417 33.3726 417 40C417 46.6274 422.373 52 429 52C435.627 52 441 46.6274 441 40ZM449 40C449 28.9543 440.046 20 429 20C417.954 20 409 28.9543 409 40C409 51.0457 417.954 60 429 60C440.046 60 449 51.0457 449 40Z" fill="#2F74FC"/>
<path d="M402 67L402 13L456 13L456 67L402 67Z" fill="white"/>
<path opacity="0.2" d="M429 20C440.046 20 449 28.9543 449 40C449 51.0457 440.046 60 429 60C417.954 60 409 51.0457 409 40C409 28.9543 417.954 20 429 20Z" fill="white"/>
<path fill-rule="evenodd" clip-rule="evenodd" d="M441 40C441 33.3726 435.627 28 429 28C422.373 28 417 33.3726 417 40C417 46.6274 422.373 52 429 52C435.627 52 441 46.6274 441 40ZM449 40C449 28.9543 440.046 20 429 20C417.954 20 409 28.9543 409 40C409 51.0457 417.954 60 429 60C440.046 60 449 51.0457 449 40Z" fill="#2F74FC"/>
<path d="M306 67L306 13L252 13L252 67L306 67Z" fill="white"/>
<path fill-rule="evenodd" clip-rule="evenodd" d="M298.133 51.6858L291.584 58.2346L279.516 46.1663L267.447 58.2349L260.898 51.686L272.967 39.6174L260.898 27.5488L267.447 21L279.516 33.0686L291.584 21.0002L298.133 27.5491L286.064 39.6174L298.133 51.6858Z" fill="#2F74FC"/>
<path d="M306 67L306 13L252 13L252 67L306 67Z" fill="white"/>
<path fill-rule="evenodd" clip-rule="evenodd" d="M298.133 51.6858L291.584 58.2346L279.516 46.1663L267.447 58.2349L260.898 51.686L272.967 39.6174L260.898 27.5488L267.447 21L279.516 33.0686L291.584 21.0002L298.133 27.5491L286.064 39.6174L298.133 51.6858Z" fill="#2F74FC"/>
<path fill-rule="evenodd" clip-rule="evenodd" d="M690 106C699.941 106 708 114.059 708 124V409H0V124C0 114.059 8.05886 106 18 106H690Z" fill="#E2EAF3"/>
<path d="M228 156C228 146.059 219.941 138 210 138H50C40.0589 138 32 146.059 32 156V316C32 325.941 40.0589 334 50 334H210C219.941 334 228 325.941 228 316V156Z" fill="white"/>
<path d="M452 156C452 146.059 443.941 138 434 138H274C264.059 138 256 146.059 256 156V316C256 325.941 264.059 334 274 334H434C443.941 334 452 325.941 452 316V156Z" fill="white"/>
<path d="M676 156C676 146.059 667.941 138 658 138H498C488.059 138 480 146.059 480 156V316C480 325.941 488.059 334 498 334H658C667.941 334 676 325.941 676 316V156Z" fill="white"/>
<path opacity="0.5" fill-rule="evenodd" clip-rule="evenodd" d="M170.864 219.464C172.888 224.583 174 230.161 174 236C174 241.839 172.888 247.418 170.864 252.537L154.327 236.001L170.864 219.464ZM193.171 197.157L201 189.328L175.673 164.001L167.844 171.83C156.515 164.957 143.219 161 129 161C114.781 161 101.486 164.957 90.1563 171.83L82.3265 164L56.9998 189.327L64.8296 197.157C57.9569 208.486 54 221.781 54 236C54 250.219 57.9571 263.515 64.8302 274.844L56.9997 282.675L82.3265 308.002L90.1573 300.171C101.487 307.043 114.781 311 129 311C143.219 311 156.514 307.043 167.843 300.17L175.673 308L201 282.673L193.17 274.844C200.043 263.514 204 250.219 204 236C204 221.781 200.043 208.487 193.171 197.157ZM145.537 277.864L129.001 261.328L112.464 277.864C117.583 279.888 123.161 281 129 281C134.839 281 140.418 279.888 145.537 277.864ZM87.1363 252.538L103.674 236.001L87.1359 219.463C85.112 224.582 84 230.161 84 236C84 241.839 85.1122 247.419 87.1363 252.538ZM112.463 194.136L129.001 210.674L145.538 194.136C140.419 192.112 134.839 191 129 191C123.161 191 117.582 192.112 112.463 194.136Z" fill="#E2EAF3"/>
<path opacity="0.5" fill-rule="evenodd" clip-rule="evenodd" d="M395.864 219.464C397.888 224.583 399 230.161 399 236C399 241.839 397.888 247.418 395.864 252.537L379.327 236.001L395.864 219.464ZM418.171 197.157L426 189.328L400.673 164.001L392.844 171.83C381.515 164.957 368.219 161 354 161C339.781 161 326.486 164.957 315.156 171.83L307.327 164L282 189.327L289.83 197.157C282.957 208.486 279 221.781 279 236C279 250.219 282.957 263.515 289.83 274.844L282 282.675L307.327 308.002L315.157 300.171C326.487 307.043 339.781 311 354 311C368.219 311 381.514 307.043 392.843 300.17L400.673 308L426 282.673L418.17 274.844C425.043 263.514 429 250.219 429 236C429 221.781 425.043 208.487 418.171 197.157ZM370.537 277.864L354.001 261.328L337.464 277.864C342.583 279.888 348.161 281 354 281C359.839 281 365.418 279.888 370.537 277.864ZM312.136 252.538L328.674 236.001L312.136 219.463C310.112 224.582 309 230.161 309 236C309 241.839 310.112 247.419 312.136 252.538ZM337.463 194.136L354.001 210.674L370.538 194.136C365.419 192.112 359.839 191 354 191C348.161 191 342.582 192.112 337.463 194.136Z" fill="#E2EAF3"/>
<path opacity="0.5" fill-rule="evenodd" clip-rule="evenodd" d="M619.864 219.464C621.888 224.583 623 230.161 623 236C623 241.839 621.888 247.418 619.864 252.537L603.327 236.001L619.864 219.464ZM642.171 197.157L650 189.328L624.673 164.001L616.844 171.83C605.515 164.957 592.219 161 578 161C563.781 161 550.486 164.957 539.156 171.83L531.327 164L506 189.327L513.83 197.157C506.957 208.486 503 221.781 503 236C503 250.219 506.957 263.515 513.83 274.844L506 282.675L531.327 308.002L539.157 300.171C550.487 307.043 563.781 311 578 311C592.219 311 605.514 307.043 616.843 300.17L624.673 308L650 282.673L642.17 274.844C649.043 263.514 653 250.219 653 236C653 221.781 649.043 208.487 642.171 197.157ZM594.537 277.864L578.001 261.328L561.464 277.864C566.583 279.888 572.161 281 578 281C583.839 281 589.418 279.888 594.537 277.864ZM536.136 252.538L552.674 236.001L536.136 219.463C534.112 224.582 533 230.161 533 236C533 241.839 534.112 247.419 536.136 252.538ZM561.463 194.136L578.001 210.674L594.538 194.136C589.419 192.112 583.839 191 578 191C572.161 191 566.582 192.112 561.463 194.136Z" fill="#E2EAF3"/>
<path fill-rule="evenodd" clip-rule="evenodd" d="M623 236C623 211.147 602.853 191 578 191C553.147 191 533 211.147 533 236C533 260.853 553.147 281 578 281C602.853 281 623 260.853 623 236ZM653 236C653 194.579 619.421 161 578 161C536.579 161 503 194.579 503 236C503 277.421 536.579 311 578 311C619.421 311 653 277.421 653 236Z" fill="#2F74FC"/>
<path fill-rule="evenodd" clip-rule="evenodd" d="M201 282.673L175.673 308L129.001 261.328L82.3265 308.002L56.9997 282.675L103.674 236.001L56.9998 189.327L82.3265 164L129.001 210.674L175.673 164.001L201 189.328L154.327 236.001L201 282.673Z" fill="#2F74FC"/>
<path fill-rule="evenodd" clip-rule="evenodd" d="M210 362C219.941 362 228 370.059 228 380V409H32V380C32 370.059 40.0589 362 50 362H210Z" fill="white"/>
<path fill-rule="evenodd" clip-rule="evenodd" d="M434 362C443.941 362 452 370.059 452 380V409H256V380C256 370.059 264.059 362 274 362H434Z" fill="white"/>
<path fill-rule="evenodd" clip-rule="evenodd" d="M658 362C667.941 362 676 370.059 676 380V409H480V380C480 370.059 488.059 362 498 362H658Z" fill="white"/>
<path opacity="0.5" fill-rule="evenodd" clip-rule="evenodd" d="M196.673 409L175.675 388.001L167.846 395.83C156.516 388.957 143.221 385 129.002 385C114.782 385 101.488 388.957 90.1579 395.83L82.3281 388L61.3281 409H196.673Z" fill="#E2EAF3"/>
<path opacity="0.5" fill-rule="evenodd" clip-rule="evenodd" d="M421.345 409L400.347 388.001L392.518 395.83C381.188 388.957 367.893 385 353.673 385C339.454 385 326.159 388.957 314.83 395.83L307 388L286 409H421.345Z" fill="#E2EAF3"/>
<path opacity="0.5" fill-rule="evenodd" clip-rule="evenodd" d="M645.345 409L624.347 388.001L616.518 395.83C605.188 388.957 591.893 385 577.673 385C563.454 385 550.159 388.957 538.83 395.83L531 388L510 409H645.345Z" fill="#E2EAF3"/>
<path fill-rule="evenodd" clip-rule="evenodd" d="M421.673 409H379.676L400.675 388.001L421.673 409ZM286.328 409H328.328L307.328 388L286.328 409Z" fill="#2F74FC"/>
</svg>
