<svg width="500" height="500" viewBox="0 0 500 500" fill="none" xmlns="http://www.w3.org/2000/svg">
<rect width="500" height="500" transform="matrix(-1 0 0 1 500 0)" fill="white"/>
<path opacity="0.5" fill-rule="evenodd" clip-rule="evenodd" d="M356.795 207.814C361.958 220.873 364.794 235.105 364.794 250C364.794 264.896 361.957 279.129 356.794 292.189L314.607 250.002L356.795 207.814ZM413.699 150.91L433.67 130.939L369.061 66.3298L349.09 86.3009C320.188 68.7681 286.272 58.6738 249.998 58.6738C213.725 58.6738 179.809 68.7683 150.906 86.3014L130.932 66.3266L66.3224 130.936L86.2977 150.911C68.7657 179.813 58.6719 213.728 58.6719 250C58.6719 286.274 68.7662 320.189 86.2989 349.092L66.3224 369.068L130.932 433.677L150.908 413.701C179.81 431.233 213.726 441.327 249.998 441.327C286.271 441.327 320.186 431.233 349.088 413.701L369.061 433.674L433.67 369.065L413.697 349.092C431.23 320.19 441.325 286.274 441.325 250C441.325 213.728 431.231 179.812 413.699 150.91ZM292.184 356.797L249.998 314.611L207.812 356.797C220.871 361.959 235.104 364.796 249.998 364.796C264.893 364.796 279.125 361.96 292.184 356.797ZM143.203 292.188L185.389 250.002L143.202 207.815C138.039 220.874 135.202 235.106 135.202 250C135.202 264.896 138.039 279.129 143.203 292.188ZM207.81 143.205L249.998 185.393L292.186 143.205C279.127 138.041 264.894 135.204 249.998 135.204C235.103 135.204 220.869 138.042 207.81 143.205Z" fill="#E2EAF3"/>
</svg>
