<svg width="4179" height="562" viewBox="0 0 4179 562" fill="none" xmlns="http://www.w3.org/2000/svg">
<path fill-rule="evenodd" clip-rule="evenodd" d="M3751.52 469.859C3768.16 449.359 3781.02 338.359 3781.02 280.359C3781.02 140.631 3690.02 0.859375 3534.02 0.859375C3360.52 0.859375 3281.02 116.631 3281.02 256.359C3281.02 287.859 3328.02 561.859 3470.02 561.859C3522.73 561.859 3569.8 531.355 3609.83 505.421C3618.03 500.108 3625.93 494.987 3633.52 490.359C3657.62 475.676 3685.22 476.836 3708.14 477.799C3727.71 478.621 3743.86 479.3 3751.52 469.859ZM3665.01 331.859C3683 317.651 3673 236.52 3669.52 218.859C3655.04 145.359 3602.56 95.3594 3525.51 95.3594C3448.47 95.3594 3383.52 152.667 3383.52 223.359C3383.52 327.359 3423.03 366.359 3440.52 378.359C3444.37 380.997 3454.13 376.825 3469.36 370.316C3478.95 366.218 3490.71 361.194 3504.52 356.359C3566.88 334.535 3606.55 335.736 3632.02 336.506C3647.8 336.983 3658.13 337.296 3665.01 331.859Z" fill="white"/>
<path d="M3831.64 34.4805V487.36H4178.63V386.128H3940.86V308.206H4139.33V213.634H3940.86V135.712H4178.63V34.4805H3831.64Z" fill="white"/>
<path d="M3256.57 34.4805H2825V135.712H2985.51V487.36H3096.06V135.712H3256.57V34.4805Z" fill="white"/>
<path d="M417.271 41.7216H0V139.528H155.189V479.278H262.082V139.528H417.271V41.7216Z" fill="white"/>
<path d="M594.822 41.7216H489.216V479.278H594.822V41.7216Z" fill="white"/>
<path d="M1023.95 321.629C1002.7 360.237 962.772 387.906 908.681 387.906C832.053 387.906 778.606 326.777 778.606 257.283C778.606 185.214 832.053 129.233 908.681 129.233C964.06 129.233 1004.63 155.615 1025.23 195.51L1114.74 143.389C1075.46 77.7557 1002.05 34 908.681 34C771.522 34 671.712 135.668 671.712 257.283C671.712 386.619 771.522 487 908.681 487C1001.41 487 1074.17 438.74 1113.45 373.107L1023.95 321.629Z" fill="white"/>
<path d="M1728.41 41.7216H1311.14V139.528H1466.33V479.278H1573.22V139.528H1728.41V41.7216Z" fill="white"/>
<path d="M2065.24 479.278H2177.93L1989.9 41.7216H1872.06L1684.68 479.278H1796.72L1825.7 411.071H2036.91L2065.24 479.278ZM1862.4 324.847L1931.95 161.406L2000.21 324.847H1862.4Z" fill="white"/>
<path d="M2538.2 321.629C2516.95 360.237 2477.03 387.906 2422.94 387.906C2346.31 387.906 2292.86 326.777 2292.86 257.283C2292.86 185.214 2346.31 129.233 2422.94 129.233C2478.32 129.233 2518.89 155.615 2539.49 195.51L2629 143.389C2589.72 77.7557 2516.31 34 2422.94 34C2285.78 34 2185.97 135.668 2185.97 257.283C2185.97 386.619 2285.78 487 2422.94 487C2515.67 487 2588.43 438.74 2627.71 373.107L2538.2 321.629Z" fill="white"/>
</svg>
